<?xml version="1.0" encoding="UTF-8" standalone="no"?>
<svg width="420px" height="420px" viewBox="0 0 420 420" version="1.1" xmlns="http://www.w3.org/2000/svg" xmlns:xlink="http://www.w3.org/1999/xlink">
    <g id="Page-1" stroke="none" stroke-width="1" fill="none" fill-rule="evenodd">
        <g id="Shape">
            <path d="M187.402765,324.536547 L305.950138,417.398656 C307.890958,418.88487 309.079928,419.636719 310.233929,419.636719 C313.521083,419.636719 314.500236,417.416141 314.500236,413.726835 L314.500236,325.900367 C314.500236,319.69324 318.574209,314.762509 324.081941,314.762509 L367.182129,314.727539 C405.981041,314.727539 419.636719,295.599099 419.636719,279.757812 L419.636719,34.9697266 C419.636719,17.4848633 406.558041,0 366.937341,0 L52.2622563,0 C14.0228604,0 0,16.9428325 0,34.9697266 L0,279.757812 C0,296.700645 14.4774668,314.727539 52.4545898,314.727539 L157.36377,314.727539 C157.36377,314.727539 179.307273,315.339509 187.402765,324.536547 L187.402765,324.536547 Z" fill="#FFFFFF"></path>
            <ellipse id="Oval-1" fill="#0785F2" cx="115.347661" cy="162.184556" rx="28.3476608" ry="28.1845557"></ellipse>
            <ellipse id="Oval-1" fill="#0785F2" cx="210.698884" cy="162.184556" rx="28.3476608" ry="28.1845557"></ellipse>
            <ellipse id="Oval-1" fill="#0785F2" cx="306.050106" cy="162.184556" rx="28.3476608" ry="28.1845557"></ellipse>
        </g>
    </g>
</svg>