<?xml version="1.0" encoding="UTF-8" standalone="no"?>
<svg width="312px" height="312px" viewBox="0 0 312 312" version="1.1" xmlns="http://www.w3.org/2000/svg" xmlns:xlink="http://www.w3.org/1999/xlink">
    <g id="Page-1" stroke="none" stroke-width="1" fill="none" fill-rule="evenodd">
        <path d="M178.500682,155.862614 L306.579682,28.4831591 C312.720136,22.4048864 312.720136,12.5646136 306.579682,6.50188636 C300.454773,0.423613636 290.505682,0.423613636 284.380773,6.50188636 L156.410591,133.772523 L27.2589545,4.60534091 C21.1340455,-1.53511364 11.1849545,-1.53511364 5.06004545,4.60534091 C-1.06486364,10.7613409 -1.06486364,20.7259773 5.06004545,26.8664318 L134.118409,155.940341 L4.59368182,284.749977 C-1.53122727,290.82825 -1.53122727,300.668523 4.59368182,306.73125 C10.7185909,312.809523 20.6676818,312.809523 26.7925909,306.73125 L156.2085,178.030432 L284.847136,306.684614 C290.972045,312.825068 300.921136,312.825068 307.046045,306.684614 C313.170955,300.528614 313.170955,290.563977 307.046045,284.423523 L178.500682,155.862614 L178.500682,155.862614 Z" id="Close" fill="#FFFFFF"></path>
    </g>
</svg>