<?xml version="1.0" standalone="no"?><!DOCTYPE svg PUBLIC "-//W3C//DTD SVG 1.1//EN" "http://www.w3.org/Graphics/SVG/1.1/DTD/svg11.dtd"><svg t="1574337599726" class="icon" viewBox="0 0 1024 1024" version="1.1" xmlns="http://www.w3.org/2000/svg" p-id="1113" xmlns:xlink="http://www.w3.org/1999/xlink" width="200" height="200"><defs><style type="text/css"></style></defs><path d="M930.016 512q-4.992-24.992-16.992-48 15.008-32.992 10.016-64.992-4.992-36-35.008-64.992 11.008-32.992 4-64.992-10.016-39.008-46.016-67.008 0-3.008-2.016-12-7.008-36.992-32.992-64.992-52.992-59.008-168.992-59.008H640q-58.016 0-108.992 7.008t-75.008 13.504-60 18.496h-2.016q-56 18.016-86.016 18.016H159.968q-28 0-48 20t-20 48.992v336.992q0 28.992 20 48.992t48.992 20h104.992q27.008 0 48.992 12.992 32 20 62.016 51.008 56 59.008 74.016 140.992 2.016 7.008 4 20.992 0 0.992 0.992 4.992v0.992q7.008 43.008 16 64 19.008 43.008 60.992 56.992 28.992 8.992 59.008 7.008 36.992-3.008 64-24 30.016-22.016 46.016-60 16-40 16-96v-3.008q-3.008-48.992-19.008-95.008h92q38.016 0 70.016-18.016 22.016-12.992 40.992-36.512t27.008-54.496q6.016-28.992 0.992-59.008z m-85.024-29.984q24.992 40 16.992 72.992-7.008 32-35.008 48-16 8.992-36.992 8.992h-108.992q-30.016 0-46.016 24.992-16.992 24.992-4.992 52.992 16 36.992 19.008 88.992 0 76-32.992 100-24.992 18.016-62.016 7.008-14.016-4.992-20-18.496t-11.008-49.504l-6.016-30.016q-22.016-100-91.008-172-36-39.008-76-63.008-12.992-7.008-24.992-12V189.952q32.992-2.016 91.008-20.992 34.016-11.008 56.512-16.992t68.512-12T640 133.952h2.016q84.992 0 118.016 36 10.016 10.016 14.496 22.016t4.992 17.504-0.512 7.488q-2.016 22.016 16.992 32 24.992 15.008 28.992 34.016 4.992 22.016-7.008 42.016-8 12-5.504 25.504t14.496 21.504q26.016 16.992 28.992 36 3.008 16.992-8.992 34.016-15.008 19.008-2.016 40zM160 192v-0.992h96.992v339.008h-96q-0.992 0-0.992-0.992V192.032z" p-id="1114"></path></svg>