<?xml version="1.0" standalone="no"?><!DOCTYPE svg PUBLIC "-//W3C//DTD SVG 1.1//EN" "http://www.w3.org/Graphics/SVG/1.1/DTD/svg11.dtd"><svg t="1576563593269" class="icon" viewBox="0 0 1024 1024" version="1.1" xmlns="http://www.w3.org/2000/svg" p-id="1110" width="200" height="200" xmlns:xlink="http://www.w3.org/1999/xlink"><defs><style type="text/css"></style></defs><path d="M729.4 871L377.9 519.5c-1.9-1.9-3.1-4.5-3.1-7.5s1.2-5.6 3.2-7.6L729.4 153c13.9-13.9 13.9-36.7 0-50.6-13.9-13.9-36.7-13.9-50.6 0L294.6 486.7c-13.9 13.9-13.9 36.7 0 50.6 0.1 0.1 0.1 0.1 0.2 0.1l384.1 384.1c13.9 13.9 36.7 13.9 50.6 0 13.8-13.8 13.8-36.6-0.1-50.5z" p-id="1111" fill="#ffffff"></path><path d="M382.8 522.2c0.2 0 0.3 0.1 0.5 0.1-0.2 0-0.3 0-0.5-0.1zM381.1 521.6c0.1 0 0.1 0.1 0.2 0.1-0.1 0-0.1 0-0.2-0.1zM385.4 522.6h-0.1 0.1z" p-id="1112" fill="#ffffff"></path></svg>